<svg width="184" height="180" viewBox="0 0 184 180" fill="none" xmlns="http://www.w3.org/2000/svg">
<path d="M176.224 91.8881C176.224 93.9737 177.915 95.6643 180 95.6643C182.086 95.6643 183.777 93.9737 183.777 91.8881H176.224ZM164.943 49.723C172.117 62.1238 176.224 76.5206 176.224 91.8881H183.777C183.777 75.1576 179.302 59.4607 171.481 45.9413L164.943 49.723Z" fill="#713FFD"/>
<path d="M168.212 47.8322C160.475 34.4555 149.321 23.302 135.944 15.564" stroke="#865CFD" stroke-opacity="0.85" stroke-width="6"/>
<path d="M91.8877 3.77625C107.937 3.77625 122.984 8.06704 135.944 15.5641" stroke="#9874FF" stroke-opacity="0.83" stroke-width="6"/>
<path d="M91.8877 3.77625C75.786 3.77625 60.6931 8.09528 47.7041 15.638" stroke="#AC8EFF" stroke-opacity="0.78" stroke-width="6"/>
<path d="M15.5635 47.8321C23.2769 34.498 34.3842 23.3729 47.704 15.6379" stroke="#CDBBFF" stroke-opacity="0.63" stroke-width="6"/>
<path d="M0 91.8881C0 93.9737 1.69068 95.6643 3.77622 95.6643C5.86177 95.6643 7.55245 93.9737 7.55245 91.8881H0ZM7.55245 91.8881C7.55245 76.5206 11.6593 62.1238 18.8328 49.723L12.2953 45.9413C4.47477 59.4607 0 75.1576 0 91.8881H7.55245Z" fill="white" fill-opacity="0.24"/>
<g filter="url(#filter0_d_240_2183)">
<path d="M78.7967 62H87.3858V60.8665H80.5509V60.7788L83.9785 56.9531C86.2725 54.4162 86.954 53.2692 86.954 51.7376C86.954 49.6325 85.2942 47.9929 82.9799 47.9929C80.6454 47.9929 78.9114 49.6392 78.9114 51.9265H80.1191C80.1191 50.2869 81.2391 49.1062 82.9462 49.1062C84.552 49.1062 85.7665 50.1587 85.7665 51.7376C85.7665 53.0465 85.0715 54.0181 83.3105 56.0018L78.7967 61.0756V62ZM94.9274 47.5341H93.8006L89.3475 64.0781H90.4743L94.9274 47.5341ZM101.003 62.1889C103.554 62.1889 105.402 60.2525 105.409 57.6346C105.416 54.9627 103.533 53.0668 101.098 53.0668C100.113 53.0668 99.195 53.4244 98.5878 53.9371H98.5203L99.0736 49.3153H104.842V48.1818H98.0142L97.1843 54.8952L98.4461 55.0572C99.0398 54.5646 99.9912 54.2138 100.922 54.2205C102.758 54.2273 104.181 55.6307 104.188 57.6548C104.188 59.6048 102.859 61.0554 101.003 61.0554C99.4109 61.0554 98.2302 60.0096 98.1492 58.5455H96.928C96.9887 60.6573 98.7025 62.1889 101.003 62.1889ZM44.4854 80V96H45.8604V83.0859H45.9854L51.3838 96H52.7119L58.1104 83.0859H58.2354V96H59.6104V80H57.9229L52.1182 93.9375H51.9775L46.1729 80H44.4854ZM68.2393 96.25C71.3486 96.25 73.5205 93.7109 73.5205 90.0547C73.5205 86.375 71.3486 83.8359 68.2393 83.8359C65.1299 83.8359 62.958 86.375 62.958 90.0547C62.958 93.7109 65.1299 96.25 68.2393 96.25ZM68.2393 94.9766C65.7471 94.9766 64.3564 92.7422 64.3564 90.0547C64.3564 87.3672 65.7471 85.1016 68.2393 85.1016C70.7314 85.1016 72.1221 87.3672 72.1221 90.0547C72.1221 92.7422 70.7314 94.9766 68.2393 94.9766ZM80.8936 96.25C83.0732 96.25 84.0889 94.8672 84.5811 93.7734H84.7451V96H86.1045V80H84.7061V86.2891H84.5811C84.1045 85.2109 83.1123 83.8359 80.917 83.8359C77.9561 83.8359 75.9561 86.3359 75.9561 90.0313C75.9561 93.7578 77.9482 96.25 80.8936 96.25ZM81.0576 94.9766C78.667 94.9766 77.3545 92.8047 77.3545 90.0078C77.3545 87.2422 78.6514 85.1016 81.0576 85.1016C83.4014 85.1016 84.7295 87.1328 84.7295 90.0078C84.7295 92.9062 83.3857 94.9766 81.0576 94.9766ZM94.917 96.25C97.3232 96.25 98.9404 94.9453 99.4873 93.4375L98.167 93.0078C97.7061 94.0859 96.6201 94.9766 94.917 94.9766C92.4639 94.9766 90.9092 93.1875 90.8467 90.4141H99.7842V89.7266C99.7842 85.7187 97.3076 83.8359 94.7061 83.8359C91.5967 83.8359 89.4482 86.4375 89.4482 90.0703C89.4482 93.7109 91.5576 96.25 94.917 96.25ZM90.8545 89.1875C91.0029 86.9531 92.5107 85.1016 94.7061 85.1016C96.8545 85.1016 98.3623 86.875 98.3623 89.1875H90.8545ZM102.849 96H104.239V88.25C104.239 86.4687 105.606 85.1797 107.481 85.1797C107.849 85.1797 108.192 85.2422 108.317 85.2578V83.8438C108.13 83.8359 107.81 83.8203 107.583 83.8203C106.075 83.8203 104.786 84.6328 104.302 85.8437H104.2V84H102.849V96ZM114.042 96.2734C116.042 96.2734 117.261 95.1641 117.761 94.1016H117.847V96H119.237V87.8516C119.237 84.6328 116.815 83.8359 114.979 83.8359C113.144 83.8359 111.253 84.5625 110.44 86.5234L111.761 87C112.198 85.9687 113.284 85.0859 115.019 85.0859C116.839 85.0859 117.847 86.0859 117.847 87.7266V88.0078C117.847 88.9141 116.722 88.9297 114.706 89.1797C111.995 89.5156 110.097 90.2734 110.097 92.6484C110.097 94.9609 111.862 96.2734 114.042 96.2734ZM114.229 95C112.659 95 111.487 94.1641 111.487 92.7109C111.487 91.2578 112.675 90.6484 114.706 90.3984C115.69 90.2812 117.44 90.0625 117.847 89.6641V91.3984C117.847 93.3672 116.448 95 114.229 95ZM127.663 84H125.124V81.125H123.726V84H121.937V85.2109H123.726V93.1953C123.726 95.1562 125.272 96.1797 126.812 96.1797C127.39 96.1797 127.78 96.0703 128.046 95.9687L127.749 94.7109C127.554 94.7656 127.304 94.8203 126.937 94.8203C125.991 94.8203 125.124 94.375 125.124 92.8672V85.2109H127.663V84ZM135.544 96.25C137.95 96.25 139.567 94.9453 140.114 93.4375L138.794 93.0078C138.333 94.0859 137.247 94.9766 135.544 94.9766C133.091 94.9766 131.536 93.1875 131.474 90.4141H140.411V89.7266C140.411 85.7187 137.935 83.8359 135.333 83.8359C132.224 83.8359 130.075 86.4375 130.075 90.0703C130.075 93.7109 132.185 96.25 135.544 96.25ZM131.481 89.1875C131.63 86.9531 133.138 85.1016 135.333 85.1016C137.481 85.1016 138.989 86.875 138.989 89.1875H131.481Z" fill="white"/>
</g>
<circle cx="59" cy="8" r="7.5" fill="#FDFDFD" stroke="#EFEDED"/>
<defs>
<filter id="filter0_d_240_2183" x="42.2254" y="47.5341" width="98.1858" height="51.7493" filterUnits="userSpaceOnUse" color-interpolation-filters="sRGB">
<feFlood flood-opacity="0" result="BackgroundImageFix"/>
<feColorMatrix in="SourceAlpha" type="matrix" values="0 0 0 0 0 0 0 0 0 0 0 0 0 0 0 0 0 0 127 0" result="hardAlpha"/>
<feOffset dx="-1.51" dy="2.26"/>
<feGaussianBlur stdDeviation="0.375"/>
<feColorMatrix type="matrix" values="0 0 0 0 0 0 0 0 0 0 0 0 0 0 0 0 0 0 0.1 0"/>
<feBlend mode="normal" in2="BackgroundImageFix" result="effect1_dropShadow_240_2183"/>
<feBlend mode="normal" in="SourceGraphic" in2="effect1_dropShadow_240_2183" result="shape"/>
</filter>
</defs>
</svg>
