<svg width="26" height="23" viewBox="0 0 26 23" fill="none" xmlns="http://www.w3.org/2000/svg">
<path opacity="0.5" d="M18.2038 11.6182L25.3061 18.0553C25.7322 18.4415 25.9453 18.9565 25.9453 19.4715C25.9453 20.0508 25.7322 20.5658 25.3061 20.952L23.7436 22.3682C23.2464 22.7544 22.6783 22.9475 22.1101 22.9475C21.4709 22.9475 20.9737 22.7544 20.5476 22.3682L13.4453 15.9311L6.34304 22.3682C5.9169 22.7544 5.34872 22.9475 4.78054 22.9475C4.14134 22.9475 3.57315 22.7544 3.14702 22.3682L1.58452 20.952C1.15838 20.5658 0.945312 20.0508 0.945312 19.4715C0.945312 18.9565 1.15838 18.4415 1.58452 18.0553L8.68679 11.6182L1.58452 5.18104C1.15838 4.79481 0.945312 4.34421 0.945312 3.76487C0.945312 3.2499 1.15838 2.73493 1.58452 2.28433L3.14702 0.86816C3.57315 0.481932 4.14134 0.288818 4.78054 0.288818C5.34872 0.288818 5.9169 0.481932 6.34304 0.86816L13.4453 7.30529L20.5476 0.86816C20.9737 0.481932 21.4709 0.288818 22.1101 0.288818C22.6783 0.288818 23.2464 0.481932 23.7436 0.86816L25.3061 2.28433C25.7322 2.73493 25.9453 3.2499 25.9453 3.76487C25.9453 4.34421 25.7322 4.79481 25.3061 5.18104L18.2038 11.6182Z" fill="#33A0FF"/>
</svg>
